<mxfile host="www.draw.io" modified="2019-12-17T09:35:52.452Z" agent="Mozilla/5.0 (Macintosh; Intel Mac OS X 10_15_2) AppleWebKit/537.36 (KHTML, like Gecko) Chrome/79.0.3945.79 Safari/537.36" etag="6jAQeltAHvS_K3cmfmPg" version="12.4.2" type="github" pages="1">
  <diagram id="K05C8tEEwZNEdQpc0IiX" name="Page-1">
    <mxGraphModel dx="946" dy="546" grid="1" gridSize="10" guides="1" tooltips="1" connect="1" arrows="1" fold="1" page="1" pageScale="1" pageWidth="827" pageHeight="1169" math="0" shadow="0">
      <root>
        <mxCell id="0"/>
        <mxCell id="1" parent="0"/>
        <mxCell id="mCnokCUa3NOEP8cFC3iU-3" value="admin docker" style="shape=mxgraph.cisco.servers.microwebserver;html=1;pointerEvents=1;dashed=0;fillColor=#036897;strokeColor=#ffffff;strokeWidth=2;verticalLabelPosition=bottom;verticalAlign=top;align=center;outlineConnect=0;" vertex="1" parent="1">
          <mxGeometry x="640" y="450" width="77" height="51" as="geometry"/>
        </mxCell>
        <mxCell id="FofzUSw3QuhYvg1V8RSB-4" value="NGINX:ok" style="shape=mxgraph.cisco.computers_and_peripherals.web_browser;html=1;pointerEvents=1;dashed=0;fillColor=#036897;strokeColor=#ffffff;strokeWidth=2;verticalLabelPosition=bottom;verticalAlign=top;align=center;outlineConnect=0;" parent="1" vertex="1">
          <mxGeometry x="230" y="191" width="62" height="64" as="geometry"/>
        </mxCell>
        <mxCell id="FofzUSw3QuhYvg1V8RSB-7" value="" style="edgeStyle=orthogonalEdgeStyle;rounded=0;orthogonalLoop=1;jettySize=auto;html=1;" parent="1" source="FofzUSw3QuhYvg1V8RSB-5" target="FofzUSw3QuhYvg1V8RSB-4" edge="1">
          <mxGeometry relative="1" as="geometry">
            <mxPoint x="247" y="223" as="targetPoint"/>
          </mxGeometry>
        </mxCell>
        <mxCell id="FofzUSw3QuhYvg1V8RSB-10" value="80" style="text;html=1;align=center;verticalAlign=middle;resizable=0;points=[];;labelBackgroundColor=#ffffff;" parent="FofzUSw3QuhYvg1V8RSB-7" vertex="1" connectable="0">
          <mxGeometry x="0.0727" y="4" relative="1" as="geometry">
            <mxPoint as="offset"/>
          </mxGeometry>
        </mxCell>
        <mxCell id="FofzUSw3QuhYvg1V8RSB-5" value="用户请求" style="shape=mxgraph.cisco.computers_and_peripherals.laptop;html=1;pointerEvents=1;dashed=0;fillColor=#036897;strokeColor=#ffffff;strokeWidth=2;verticalLabelPosition=bottom;verticalAlign=top;align=center;outlineConnect=0;" parent="1" vertex="1">
          <mxGeometry x="70" y="191" width="90" height="61" as="geometry"/>
        </mxCell>
        <mxCell id="FofzUSw3QuhYvg1V8RSB-8" value="API服务器" style="shape=mxgraph.cisco.computers_and_peripherals.web_browser;html=1;pointerEvents=1;dashed=0;fillColor=#036897;strokeColor=#ffffff;strokeWidth=2;verticalLabelPosition=bottom;verticalAlign=top;align=center;outlineConnect=0;" parent="1" vertex="1">
          <mxGeometry x="470" y="100" width="62" height="64" as="geometry"/>
        </mxCell>
        <mxCell id="FofzUSw3QuhYvg1V8RSB-12" value="api.csdashi.cn:ok" style="rounded=0;orthogonalLoop=1;jettySize=auto;html=1;" parent="1" source="FofzUSw3QuhYvg1V8RSB-4" target="FofzUSw3QuhYvg1V8RSB-8" edge="1">
          <mxGeometry relative="1" as="geometry">
            <mxPoint x="372" y="223" as="targetPoint"/>
          </mxGeometry>
        </mxCell>
        <mxCell id="mCnokCUa3NOEP8cFC3iU-5" value="8092:ok" style="rounded=0;orthogonalLoop=1;jettySize=auto;html=1;" edge="1" parent="1" source="FofzUSw3QuhYvg1V8RSB-9" target="mCnokCUa3NOEP8cFC3iU-3">
          <mxGeometry relative="1" as="geometry"/>
        </mxCell>
        <mxCell id="FofzUSw3QuhYvg1V8RSB-9" value="NGINX、APP服务器" style="shape=mxgraph.cisco.computers_and_peripherals.web_browser;html=1;pointerEvents=1;dashed=0;fillColor=#036897;strokeColor=#ffffff;strokeWidth=2;verticalLabelPosition=bottom;verticalAlign=top;align=center;outlineConnect=0;" parent="1" vertex="1">
          <mxGeometry x="470" y="260" width="62" height="64" as="geometry"/>
        </mxCell>
        <mxCell id="FofzUSw3QuhYvg1V8RSB-14" value="1、app.csdashi.cn:ok&lt;br&gt;&lt;div style=&quot;text-align: left&quot;&gt;2、m.csdashi.cn&lt;/div&gt;&lt;div style=&quot;text-align: left&quot;&gt;3、csdashi.cn&lt;/div&gt;&lt;div style=&quot;text-align: left&quot;&gt;4、admin.csdashi.cn&lt;/div&gt;" style="edgeStyle=none;rounded=0;orthogonalLoop=1;jettySize=auto;html=1;entryX=0.135;entryY=0.5;entryDx=0;entryDy=0;entryPerimeter=0;" parent="1" source="FofzUSw3QuhYvg1V8RSB-4" target="FofzUSw3QuhYvg1V8RSB-9" edge="1">
          <mxGeometry relative="1" as="geometry">
            <mxPoint x="372" y="223" as="targetPoint"/>
          </mxGeometry>
        </mxCell>
        <mxCell id="FofzUSw3QuhYvg1V8RSB-15" value="APP docker" style="shape=mxgraph.cisco.servers.microwebserver;html=1;pointerEvents=1;dashed=0;fillColor=#036897;strokeColor=#ffffff;strokeWidth=2;verticalLabelPosition=bottom;verticalAlign=top;align=center;outlineConnect=0;" parent="1" vertex="1">
          <mxGeometry x="640" y="166.5" width="77" height="51" as="geometry"/>
        </mxCell>
        <mxCell id="FofzUSw3QuhYvg1V8RSB-17" value="8089:ok" style="edgeStyle=none;rounded=0;orthogonalLoop=1;jettySize=auto;html=1;" parent="1" source="FofzUSw3QuhYvg1V8RSB-9" target="FofzUSw3QuhYvg1V8RSB-15" edge="1">
          <mxGeometry relative="1" as="geometry">
            <mxPoint x="612" y="292" as="targetPoint"/>
          </mxGeometry>
        </mxCell>
        <mxCell id="FofzUSw3QuhYvg1V8RSB-18" value="网站 docker" style="shape=mxgraph.cisco.servers.microwebserver;html=1;pointerEvents=1;dashed=0;fillColor=#036897;strokeColor=#ffffff;strokeWidth=2;verticalLabelPosition=bottom;verticalAlign=top;align=center;outlineConnect=0;" parent="1" vertex="1">
          <mxGeometry x="640" y="266.5" width="77" height="51" as="geometry"/>
        </mxCell>
        <mxCell id="FofzUSw3QuhYvg1V8RSB-20" value="" style="edgeStyle=none;rounded=0;orthogonalLoop=1;jettySize=auto;html=1;" parent="1" source="FofzUSw3QuhYvg1V8RSB-9" target="FofzUSw3QuhYvg1V8RSB-18" edge="1">
          <mxGeometry relative="1" as="geometry">
            <mxPoint x="612" y="292" as="targetPoint"/>
          </mxGeometry>
        </mxCell>
        <mxCell id="FofzUSw3QuhYvg1V8RSB-21" value="8090" style="text;html=1;align=center;verticalAlign=middle;resizable=0;points=[];;labelBackgroundColor=#ffffff;" parent="FofzUSw3QuhYvg1V8RSB-20" vertex="1" connectable="0">
          <mxGeometry x="-0.1834" y="-1" relative="1" as="geometry">
            <mxPoint as="offset"/>
          </mxGeometry>
        </mxCell>
        <mxCell id="FofzUSw3QuhYvg1V8RSB-22" value="回调 docker" style="shape=mxgraph.cisco.servers.microwebserver;html=1;pointerEvents=1;dashed=0;fillColor=#036897;strokeColor=#ffffff;strokeWidth=2;verticalLabelPosition=bottom;verticalAlign=top;align=center;outlineConnect=0;" parent="1" vertex="1">
          <mxGeometry x="640" y="360" width="77" height="51" as="geometry"/>
        </mxCell>
        <mxCell id="FofzUSw3QuhYvg1V8RSB-24" value="8091" style="edgeStyle=none;rounded=0;orthogonalLoop=1;jettySize=auto;html=1;" parent="1" source="FofzUSw3QuhYvg1V8RSB-9" target="FofzUSw3QuhYvg1V8RSB-22" edge="1">
          <mxGeometry relative="1" as="geometry">
            <mxPoint x="501" y="404" as="targetPoint"/>
          </mxGeometry>
        </mxCell>
      </root>
    </mxGraphModel>
  </diagram>
</mxfile>
